<?xml version="1.0" encoding="utf-8"?>
<!-- Generator: Adobe Illustrator 26.5.2, SVG Export Plug-In . SVG Version: 6.00 Build 0)  -->
<svg version="1.1" id="Layer_1" xmlns="http://www.w3.org/2000/svg" xmlns:xlink="http://www.w3.org/1999/xlink" x="0px" y="0px"
	 viewBox="0 0 595.28 841.89" style="enable-background:new 0 0 595.28 841.89;" xml:space="preserve">
<style type="text/css">
	.st0{fill:#DE7519;}
</style>
<polygon class="st0" points="288.75,402.03 280.98,408.95 277.28,408.76 283.35,400.04 "/>
<polygon class="st0" points="278.85,415.34 283.36,413.64 283.36,413.64 281.7,411.22 281.7,411.22 278.85,415.34 "/>
<polygon class="st0" points="283.49,420.65 283.68,418.09 292.78,414.4 292.87,420.36 292.87,420.36 283.49,420.65 "/>
<polygon class="st0" points="296.76,405.63 290.74,409.61 290.74,409.61 285.53,409.51 285.53,409.51 292.25,401.27 292.25,401.27 
	292.63,406.15 292.63,406.15 295.76,405.72 "/>
<polygon class="st0" points="291.97,410.84 296.04,411.12 288.84,413.87 "/>
<polygon class="st0" points="295.62,424.77 295.15,427.8 289.84,424.67 290.32,421.83 290.32,421.83 295.62,424.77 "/>
<polygon class="st0" points="292.82,429.03 295.95,431.87 294.72,434.81 294.34,435.19 293.01,432.44 "/>
<polyline class="st0" points="279.13,399.23 279.6,397.24 281.97,396.96 280.36,399.24 280.13,399.19 279.27,398.76 "/>
<path class="st0" d="M263.47,435.06"/>
<path class="st0" d="M277.38,426.19l-20.6,0.33l0,0c0.58,1.42,0.95,2.23,1.84,3.46l0,0h10.23l0.28,1.42l0,0l-9.66-0.06l0,0
	c1.14,1.42,2.18,2.05,3.69,3.09l0,0l10.99-0.28l0,0v1.42l-8.34,0.47l0,0c2.84,1.63,5.18,2.46,8.72,2.46c6.8,0,12.78-3.47,16.17-8.7
	l-0.26-0.3l-4.93-3.69l1.04-2.46h-0.28l-5.02,0.57l-0.57-6.35l-6.73,4.17l3.41-8.05l0,0l-5.59-2.46l7.73-9.33l0,0
	c-1.71-0.49-3.1-0.81-4.98-0.81c-4.29,0-8.26,1.38-11.45,3.72l0,0l7.06,0.64l0,0l0.27,1.75l0,0l-11.01,0.84l0,0
	c-1.58,1.88-2.42,3.88-3.22,6.25l0,0l16.26-0.22l0,0l-0.03,1.29l0,0l-16.55,0.41l0,0c-0.14,1.07-0.23,1.21-0.28,2.32l0,0l9.85-0.05
	l-0.03-0.53l0.08,2.24l0,0l-10.1,0.05l0.01-0.46c0,0.15-0.01,0.31-0.01,0.46c0,1.94,0.29,3.22,0.85,4.97l0,0l21.03-0.09l0,0
	l-0.09,2.08"/>
</svg>
