<?xml version="1.0" encoding="UTF-8"?>
<!DOCTYPE svg PUBLIC "-//W3C//DTD SVG 1.1//EN" "http://www.w3.org/Graphics/SVG/1.1/DTD/svg11.dtd">
<svg xmlns="http://www.w3.org/2000/svg" version="1.1" width="113px" height="112px" style="shape-rendering:geometricPrecision; text-rendering:geometricPrecision; image-rendering:optimizeQuality; fill-rule:evenodd; clip-rule:evenodd" xmlns:xlink="http://www.w3.org/1999/xlink">
<g><path style="opacity:1" fill="#cb640b" d="M 46.5,-0.5 C 52.8333,-0.5 59.1667,-0.5 65.5,-0.5C 71.967,1.21409 78.3003,3.54742 84.5,6.5C 86.916,9.0999 89.2493,11.9332 91.5,15C 92.7659,15.3095 93.9326,15.8095 95,16.5C 95.9042,19.2334 97.4042,21.5667 99.5,23.5C 98.391,23.4431 97.391,23.1098 96.5,22.5C 95.1938,21.5326 94.5271,20.1993 94.5,18.5C 93.5,18.5 92.5,18.5 91.5,18.5C 90.2972,16.6045 89.1305,14.6045 88,12.5C 86.9887,11.6634 85.8221,11.33 84.5,11.5C 84.1667,10.5 83.5,9.83333 82.5,9.5C 81.2627,7.90319 79.596,6.73653 77.5,6C 72.0199,5.33596 66.6865,4.16929 61.5,2.5C 55.5,3 49.5,3.5 43.5,4C 39.8675,4.14893 36.5341,4.98226 33.5,6.5C 31.4352,6.51715 29.4352,6.85048 27.5,7.5C 28.7489,5.8639 30.4156,4.69724 32.5,4C 37.254,2.35832 41.9207,0.858315 46.5,-0.5 Z"/></g>
<g><path style="opacity:1" fill="#e69651" d="M 82.5,9.5 C 79.9208,9.91668 77.7542,9.25001 76,7.5C 75.1841,8.82277 74.0174,9.48944 72.5,9.5C 69.8394,8.18816 67.3394,6.52149 65,4.5C 61.5781,2.83526 58.4115,3.16859 55.5,5.5C 48.0666,4.76985 40.7333,5.43651 33.5,7.5C 33.5,7.16667 33.5,6.83333 33.5,6.5C 36.5341,4.98226 39.8675,4.14893 43.5,4C 49.5,3.5 55.5,3 61.5,2.5C 66.6865,4.16929 72.0199,5.33596 77.5,6C 79.596,6.73653 81.2627,7.90319 82.5,9.5 Z"/></g>
<g><path style="opacity:1" fill="#eeb888" d="M 72.5,9.5 C 69.1747,8.87932 66.008,7.87932 63,6.5C 60.4219,6.68237 59.9219,7.68237 61.5,9.5C 57.5,9.5 53.5,9.5 49.5,9.5C 47.9522,8.20574 45.9522,7.53907 43.5,7.5C 38.5889,8.03362 33.7556,9.03362 29,10.5C 25.865,13.1203 23.365,16.1203 21.5,19.5C 18.1322,20.8513 17.7989,22.8513 20.5,25.5C 20.1667,26.1667 19.8333,26.8333 19.5,27.5C 19.1667,27.5 18.8333,27.5 18.5,27.5C 16.9652,26.2121 15.2985,26.2121 13.5,27.5C 12.0787,30.0094 10.4121,32.3428 8.5,34.5C 8.83333,35.1667 9.16667,35.8333 9.5,36.5C 7.74722,42.694 7.08055,49.0273 7.5,55.5C 6.2751,50.7105 5.60844,45.7105 5.5,40.5C 4.84664,35.4432 6.51331,31.4432 10.5,28.5C 11.2978,26.9223 11.7978,25.2556 12,23.5C 16.3076,21.8591 19.3076,18.8591 21,14.5C 24.3642,10.7346 28.5308,8.40123 33.5,7.5C 40.7333,5.43651 48.0666,4.76985 55.5,5.5C 58.4115,3.16859 61.5781,2.83526 65,4.5C 67.3394,6.52149 69.8394,8.18816 72.5,9.5 Z"/></g>
<g><path style="opacity:1" fill="#f6d7bc" d="M 49.5,9.5 C 46.8478,9.40953 44.5145,10.0762 42.5,11.5C 41.0413,11.4326 39.7079,11.7659 38.5,12.5C 37.8333,12.5 37.1667,12.5 36.5,12.5C 35.2015,10.9014 33.5348,10.4014 31.5,11C 30.1667,12.6667 28.8333,14.3333 27.5,16C 24.9746,16.4238 22.9746,17.5905 21.5,19.5C 23.365,16.1203 25.865,13.1203 29,10.5C 33.7556,9.03362 38.5889,8.03362 43.5,7.5C 45.9522,7.53907 47.9522,8.20574 49.5,9.5 Z"/></g>
<g><path style="opacity:1" fill="#e89d5b" d="M 49.5,9.5 C 47.4855,10.9238 45.1522,11.5905 42.5,11.5C 44.5145,10.0762 46.8478,9.40953 49.5,9.5 Z"/></g>
<g><path style="opacity:1" fill="#dc6e0e" d="M 49.5,9.5 C 53.5,9.5 57.5,9.5 61.5,9.5C 61.5,9.83333 61.5,10.1667 61.5,10.5C 62.68,14.0106 63.3467,18.0106 63.5,22.5C 62.5,22.5 61.5,22.5 60.5,22.5C 60.4208,23.9305 60.7542,25.2638 61.5,26.5C 57.0178,27.1669 52.6845,27.8336 48.5,28.5C 46.7839,28.6287 45.1172,28.962 43.5,29.5C 41.0052,28.8011 38.6719,27.8011 36.5,26.5C 35.9467,24.3841 35.9467,22.3841 36.5,20.5C 37.5175,19.1476 38.8508,18.1476 40.5,17.5C 39.6872,16.1861 38.6872,15.0195 37.5,14C 38.056,13.6174 38.3893,13.1174 38.5,12.5C 39.7079,11.7659 41.0413,11.4326 42.5,11.5C 45.1522,11.5905 47.4855,10.9238 49.5,9.5 Z"/></g>
<g><path style="opacity:1" fill="#f6d8bf" d="M 72.5,9.5 C 74.0174,9.48944 75.1841,8.82277 76,7.5C 77.7542,9.25001 79.9208,9.91668 82.5,9.5C 83.5,9.83333 84.1667,10.5 84.5,11.5C 84.3537,13.9424 85.187,14.6091 87,13.5C 85.7991,16.5654 86.6324,19.0654 89.5,21C 88.9056,21.4643 88.2389,21.631 87.5,21.5C 86.5,20.8333 85.5,20.1667 84.5,19.5C 77.7793,13.969 70.1126,10.969 61.5,10.5C 61.5,10.1667 61.5,9.83333 61.5,9.5C 59.9219,7.68237 60.4219,6.68237 63,6.5C 66.008,7.87932 69.1747,8.87932 72.5,9.5 Z"/></g>
<g><path style="opacity:1" fill="#d86d13" d="M 61.5,10.5 C 70.1126,10.969 77.7793,13.969 84.5,19.5C 83.241,20.9791 82.241,22.6458 81.5,24.5C 80.5987,25.2905 79.9321,26.2905 79.5,27.5C 77.1829,31.1464 74.5162,34.4797 71.5,37.5C 70.9569,37.56 70.6236,37.8933 70.5,38.5C 72.0453,39.4519 73.712,39.7852 75.5,39.5C 75.6309,40.3764 75.2975,41.0431 74.5,41.5C 73.3132,42.6527 72.3132,42.6527 71.5,41.5C 68.3362,39.8094 66.3362,40.8094 65.5,44.5C 63.7016,43.5371 62.3683,44.2038 61.5,46.5C 61.6236,47.1067 61.9569,47.44 62.5,47.5C 62.189,48.4778 61.5223,49.1445 60.5,49.5C 59.6667,48.5 58.8333,47.5 58,46.5C 57.7216,47.4158 57.2216,48.0825 56.5,48.5C 54.5821,45.8621 51.9154,44.1954 48.5,43.5C 52.2882,38.5401 56.2882,33.7068 60.5,29C 59.9056,28.5357 59.2389,28.369 58.5,28.5C 55.1667,28.5 51.8333,28.5 48.5,28.5C 52.6845,27.8336 57.0178,27.1669 61.5,26.5C 60.7542,25.2638 60.4208,23.9305 60.5,22.5C 61.5,22.5 62.5,22.5 63.5,22.5C 63.3467,18.0106 62.68,14.0106 61.5,10.5 Z"/></g>
<g><path style="opacity:1" fill="#ecac75" d="M 84.5,11.5 C 85.8221,11.33 86.9887,11.6634 88,12.5C 89.1305,14.6045 90.2972,16.6045 91.5,18.5C 92.0185,23.3939 93.5185,27.7273 96,31.5C 93.3314,28.0003 90.498,24.667 87.5,21.5C 88.2389,21.631 88.9056,21.4643 89.5,21C 86.6324,19.0654 85.7991,16.5654 87,13.5C 85.187,14.6091 84.3537,13.9424 84.5,11.5 Z"/></g>
<g><path style="opacity:1" fill="#fae8d9" d="M 36.5,12.5 C 31.0887,15.5526 26.4221,19.5526 22.5,24.5C 21.8333,24.8333 21.1667,25.1667 20.5,25.5C 17.7989,22.8513 18.1322,20.8513 21.5,19.5C 22.9746,17.5905 24.9746,16.4238 27.5,16C 28.8333,14.3333 30.1667,12.6667 31.5,11C 33.5348,10.4014 35.2015,10.9014 36.5,12.5 Z"/></g>
<g><path style="opacity:1" fill="#e59147" d="M 36.5,12.5 C 37.1667,12.5 37.8333,12.5 38.5,12.5C 38.3893,13.1174 38.056,13.6174 37.5,14C 38.6872,15.0195 39.6872,16.1861 40.5,17.5C 38.8508,18.1476 37.5175,19.1476 36.5,20.5C 35.9467,22.3841 35.9467,24.3841 36.5,26.5C 37.0522,28.3307 37.0522,29.9974 36.5,31.5C 33.3219,30.8171 30.8219,29.1504 29,26.5C 26.9534,25.3906 24.7867,24.7239 22.5,24.5C 26.4221,19.5526 31.0887,15.5526 36.5,12.5 Z"/></g>
<g><path style="opacity:0.812" fill="#8c4100" d="M 84.5,6.5 C 96.916,13.5786 105.249,23.9119 109.5,37.5C 107.416,35.4236 105.749,33.0903 104.5,30.5C 102.652,28.2669 100.985,25.9336 99.5,23.5C 97.4042,21.5667 95.9042,19.2334 95,16.5C 93.9326,15.8095 92.7659,15.3095 91.5,15C 89.2493,11.9332 86.916,9.0999 84.5,6.5 Z"/></g>
<g><path style="opacity:1" fill="#3e0b01" d="M 72.5,27.5 C 70.5952,27.9055 68.5952,28.2389 66.5,28.5C 64.7789,31.8763 62.4455,34.543 59.5,36.5C 61.451,32.7706 63.7843,29.2706 66.5,26C 68.7749,25.595 70.7749,26.095 72.5,27.5 Z"/></g>
<g><path style="opacity:1" fill="#db721a" d="M 22.5,24.5 C 24.7867,24.7239 26.9534,25.3906 29,26.5C 30.8219,29.1504 33.3219,30.8171 36.5,31.5C 37.0522,29.9974 37.0522,28.3307 36.5,26.5C 38.6719,27.8011 41.0052,28.8011 43.5,29.5C 41.7798,30.3077 40.1131,31.3077 38.5,32.5C 37.7109,32.7828 37.0442,33.2828 36.5,34C 39.5,34.3333 42.5,34.6667 45.5,35C 46.2524,35.6708 46.5858,36.5041 46.5,37.5C 41.8215,37.3342 37.1548,37.5008 32.5,38C 31.9558,38.7172 31.2891,39.2172 30.5,39.5C 29.8333,35.5 29.1667,35.5 28.5,39.5C 23.7132,39.7341 22.0465,37.7341 23.5,33.5C 21.857,33.4802 20.5237,34.1468 19.5,35.5C 19.0509,32.9564 19.0509,30.2898 19.5,27.5C 19.8333,26.8333 20.1667,26.1667 20.5,25.5C 21.1667,25.1667 21.8333,24.8333 22.5,24.5 Z"/></g>
<g><path style="opacity:1" fill="#420801" d="M 48.5,28.5 C 51.8333,28.5 55.1667,28.5 58.5,28.5C 58.5,29.1667 58.1667,29.5 57.5,29.5C 51.2168,29.5709 45.2168,30.9042 39.5,33.5C 38.8933,33.3764 38.56,33.0431 38.5,32.5C 40.1131,31.3077 41.7798,30.3077 43.5,29.5C 45.1172,28.962 46.7839,28.6287 48.5,28.5 Z"/></g>
<g><path style="opacity:1" fill="#8d3427" d="M 72.5,27.5 C 73.2389,27.369 73.9056,27.5357 74.5,28C 70.2323,32.1104 65.5656,35.6104 60.5,38.5C 58.582,38.1386 58.2486,37.472 59.5,36.5C 62.4455,34.543 64.7789,31.8763 66.5,28.5C 68.5952,28.2389 70.5952,27.9055 72.5,27.5 Z"/></g>
<g><path style="opacity:1" fill="#d26a12" d="M 33.5,6.5 C 33.5,6.83333 33.5,7.16667 33.5,7.5C 28.5308,8.40123 24.3642,10.7346 21,14.5C 19.3076,18.8591 16.3076,21.8591 12,23.5C 11.7978,25.2556 11.2978,26.9223 10.5,28.5C 6.51331,31.4432 4.84664,35.4432 5.5,40.5C 4.77842,40.9175 4.27842,41.5842 4,42.5C 3.33333,46.8333 3.33333,51.1667 4,55.5C 5.0391,56.7101 6.20577,57.7101 7.5,58.5C 7.81251,61.5716 7.14584,64.405 5.5,67C 6.85609,68.5671 7.52276,70.4004 7.5,72.5C 8.5,72.5 9.5,72.5 10.5,72.5C 10.366,74.2915 10.6993,75.9582 11.5,77.5C 11.3677,80.5701 11.701,83.5701 12.5,86.5C 10.1667,83.5 7.5,80.8333 4.5,78.5C 4.20656,72.9158 3.03989,67.5824 1,62.5C 0.376562,55.4774 0.543229,48.4774 1.5,41.5C 4.28829,29.7657 10.2883,19.9323 19.5,12C 21.8171,9.84314 24.4838,8.34314 27.5,7.5C 29.4352,6.85048 31.4352,6.51715 33.5,6.5 Z"/></g>
<g><path style="opacity:1" fill="#f9e5d3" d="M 18.5,27.5 C 15.9455,31.9409 13.9455,36.6075 12.5,41.5C 10.5468,45.5182 9.54677,49.8515 9.5,54.5C 9.5,55.5 9.5,56.5 9.5,57.5C 9.66212,59.5273 9.49546,61.5273 9,63.5C 8.80192,61.6183 8.30192,59.9516 7.5,58.5C 7.5,57.5 7.5,56.5 7.5,55.5C 7.08055,49.0273 7.74722,42.694 9.5,36.5C 9.16667,35.8333 8.83333,35.1667 8.5,34.5C 10.4121,32.3428 12.0787,30.0094 13.5,27.5C 15.2985,26.2121 16.9652,26.2121 18.5,27.5 Z"/></g>
<g><path style="opacity:1" fill="#812213" d="M 81.5,24.5 C 82.4767,27.2869 82.81,30.2869 82.5,33.5C 84.3547,33.272 85.1881,33.9387 85,35.5C 82.5524,36.9732 80.0524,38.3065 77.5,39.5C 76.8333,39.5 76.1667,39.5 75.5,39.5C 73.712,39.7852 72.0453,39.4519 70.5,38.5C 70.6236,37.8933 70.9569,37.56 71.5,37.5C 72.1894,38.7736 73.0228,38.7736 74,37.5C 76,34.8333 78,32.1667 80,29.5C 80.6917,28.5632 80.525,27.8966 79.5,27.5C 79.9321,26.2905 80.5987,25.2905 81.5,24.5 Z"/></g>
<g><path style="opacity:1" fill="#3f0901" d="M 79.5,27.5 C 80.525,27.8966 80.6917,28.5632 80,29.5C 78,32.1667 76,34.8333 74,37.5C 73.0228,38.7736 72.1894,38.7736 71.5,37.5C 74.5162,34.4797 77.1829,31.1464 79.5,27.5 Z"/></g>
<g><path style="opacity:1" fill="#dd7318" d="M 91.5,18.5 C 92.5,18.5 93.5,18.5 94.5,18.5C 94.5271,20.1993 95.1938,21.5326 96.5,22.5C 98.855,27.0817 100.522,31.9151 101.5,37C 101.02,42.7657 100.02,42.7657 98.5,37C 99.1667,36.6667 99.8333,36.3333 100.5,36C 99.2341,35.6905 98.0674,35.1905 97,34.5C 96,35.5 95,36.5 94,37.5C 93.0231,41.8285 92.1898,46.1618 91.5,50.5C 90.8365,48.9581 90.1698,47.2914 89.5,45.5C 87.1052,44.4775 86.1052,45.4775 86.5,48.5C 83.0897,48.6162 81.7564,46.9496 82.5,43.5C 83.2891,43.2172 83.9558,42.7172 84.5,42C 82.4024,41.3224 80.4024,41.4891 78.5,42.5C 78.0825,41.7784 77.4158,41.2784 76.5,41C 77.056,40.6174 77.3893,40.1174 77.5,39.5C 80.0524,38.3065 82.5524,36.9732 85,35.5C 85.1881,33.9387 84.3547,33.272 82.5,33.5C 82.81,30.2869 82.4767,27.2869 81.5,24.5C 82.241,22.6458 83.241,20.9791 84.5,19.5C 85.5,20.1667 86.5,20.8333 87.5,21.5C 90.498,24.667 93.3314,28.0003 96,31.5C 93.5185,27.7273 92.0185,23.3939 91.5,18.5 Z"/></g>
<g><path style="opacity:1" fill="#db6d0e" d="M 96.5,22.5 C 97.391,23.1098 98.391,23.4431 99.5,23.5C 100.985,25.9336 102.652,28.2669 104.5,30.5C 104.415,33.7472 105.415,36.5806 107.5,39C 106.594,40.6995 106.261,42.5328 106.5,44.5C 106.821,50.0262 106.488,55.3595 105.5,60.5C 105.073,56.1756 104.739,51.8422 104.5,47.5C 103.5,47.5 102.5,47.5 101.5,47.5C 102.295,52.7087 100.295,54.7087 95.5,53.5C 94.8333,54.1667 94.1667,54.8333 93.5,55.5C 92.8302,53.7086 92.1635,52.0419 91.5,50.5C 92.1898,46.1618 93.0231,41.8285 94,37.5C 95,36.5 96,35.5 97,34.5C 98.0674,35.1905 99.2341,35.6905 100.5,36C 99.8333,36.3333 99.1667,36.6667 98.5,37C 100.02,42.7657 101.02,42.7657 101.5,37C 100.522,31.9151 98.855,27.0817 96.5,22.5 Z"/></g>
<g><path style="opacity:1" fill="#771503" d="M 57.5,29.5 C 54.4387,34.8953 50.1054,38.8953 44.5,41.5C 45.8532,42.5237 46.5198,43.857 46.5,45.5C 40.8333,45.5 35.1667,45.5 29.5,45.5C 30.3606,43.6137 31.3606,41.7804 32.5,40C 37.1667,39.6667 41.8333,39.3333 46.5,39C 47.7383,38.31 47.7383,37.81 46.5,37.5C 46.5858,36.5041 46.2524,35.6708 45.5,35C 42.5,34.6667 39.5,34.3333 36.5,34C 37.0442,33.2828 37.7109,32.7828 38.5,32.5C 38.56,33.0431 38.8933,33.3764 39.5,33.5C 45.2168,30.9042 51.2168,29.5709 57.5,29.5 Z"/></g>
<g><path style="opacity:1" fill="#7d2d1b" d="M 82.5,43.5 C 81.0695,43.4208 79.7362,43.7542 78.5,44.5C 77.537,44.0302 77.537,43.3635 78.5,42.5C 80.4024,41.4891 82.4024,41.3224 84.5,42C 83.9558,42.7172 83.2891,43.2172 82.5,43.5 Z"/></g>
<g><path style="opacity:1" fill="#410a02" d="M 46.5,37.5 C 47.7383,37.81 47.7383,38.31 46.5,39C 41.8333,39.3333 37.1667,39.6667 32.5,40C 31.3606,41.7804 30.3606,43.6137 29.5,45.5C 28.6618,45.1583 28.3284,44.4916 28.5,43.5C 29.1667,42.1667 29.8333,40.8333 30.5,39.5C 31.2891,39.2172 31.9558,38.7172 32.5,38C 37.1548,37.5008 41.8215,37.3342 46.5,37.5 Z"/></g>
<g><path style="opacity:1" fill="#8b3320" d="M 58.5,28.5 C 59.2389,28.369 59.9056,28.5357 60.5,29C 56.2882,33.7068 52.2882,38.5401 48.5,43.5C 49.1667,44.8333 49.8333,46.1667 50.5,47.5C 42.8333,47.5 35.1667,47.5 27.5,47.5C 27.2322,45.901 27.5655,44.5676 28.5,43.5C 28.3284,44.4916 28.6618,45.1583 29.5,45.5C 35.1667,45.5 40.8333,45.5 46.5,45.5C 46.5198,43.857 45.8532,42.5237 44.5,41.5C 50.1054,38.8953 54.4387,34.8953 57.5,29.5C 58.1667,29.5 58.5,29.1667 58.5,28.5 Z"/></g>
<g><path style="opacity:1" fill="#d3813e" d="M 18.5,27.5 C 18.8333,27.5 19.1667,27.5 19.5,27.5C 19.0509,30.2898 19.0509,32.9564 19.5,35.5C 20.5237,34.1468 21.857,33.4802 23.5,33.5C 22.0465,37.7341 23.7132,39.7341 28.5,39.5C 29.1667,35.5 29.8333,35.5 30.5,39.5C 29.8333,40.8333 29.1667,42.1667 28.5,43.5C 27.5655,44.5676 27.2322,45.901 27.5,47.5C 35.1667,47.5 42.8333,47.5 50.5,47.5C 50.5,48.5 50.5,49.5 50.5,50.5C 42.5,50.5 34.5,50.5 26.5,50.5C 25.596,51.209 25.2627,52.209 25.5,53.5C 30.1667,53.5 34.8333,53.5 39.5,53.5C 39.5,54.5 39.5,55.5 39.5,56.5C 34.8333,56.5 30.1667,56.5 25.5,56.5C 25.4095,59.1522 26.0762,61.4855 27.5,63.5C 37.8333,63.5 48.1667,63.5 58.5,63.5C 58.5,64.5 58.5,65.5 58.5,66.5C 48.1452,66.1681 37.8119,66.5014 27.5,67.5C 27.6236,68.1067 27.9569,68.44 28.5,68.5C 29.0256,70.2303 30.0256,71.5637 31.5,72.5C 29.7116,73.6225 27.7116,73.7891 25.5,73C 27.4054,72.1739 27.7388,71.0072 26.5,69.5C 24.3004,70.4563 23.9671,69.7896 25.5,67.5C 25.1788,65.9519 24.1788,65.2852 22.5,65.5C 23.2801,60.3712 23.9468,55.2046 24.5,50C 25.1599,45.2175 23.9933,41.0508 21,37.5C 19.6851,39.3159 18.1851,40.9825 16.5,42.5C 15.7189,41.2713 15.2189,39.938 15,38.5C 14.5,39 14,39.5 13.5,40C 14.5536,41.3876 14.7203,42.8876 14,44.5C 13.7679,43.2625 13.2679,42.2625 12.5,41.5C 13.9455,36.6075 15.9455,31.9409 18.5,27.5 Z"/></g>
<g><path style="opacity:1" fill="#914727" d="M 65.5,44.5 C 65.5,46.5 64.5,47.5 62.5,47.5C 61.9569,47.44 61.6236,47.1067 61.5,46.5C 62.3683,44.2038 63.7016,43.5371 65.5,44.5 Z"/></g>
<g><path style="opacity:1" fill="#e9a162" d="M 25.5,67.5 C 24.4168,67.5394 23.4168,67.8728 22.5,68.5C 21.5633,65.32 20.5633,62.1533 19.5,59C 19.9054,58.0546 20.572,57.3879 21.5,57C 20.8333,56.3333 20.1667,55.6667 19.5,55C 16.5184,54.502 13.5184,54.3354 10.5,54.5C 10.1667,54.5 9.83333,54.5 9.5,54.5C 9.54677,49.8515 10.5468,45.5182 12.5,41.5C 13.2679,42.2625 13.7679,43.2625 14,44.5C 14.7203,42.8876 14.5536,41.3876 13.5,40C 14,39.5 14.5,39 15,38.5C 15.2189,39.938 15.7189,41.2713 16.5,42.5C 18.1851,40.9825 19.6851,39.3159 21,37.5C 23.9933,41.0508 25.1599,45.2175 24.5,50C 23.9468,55.2046 23.2801,60.3712 22.5,65.5C 24.1788,65.2852 25.1788,65.9519 25.5,67.5 Z"/></g>
<g><path style="opacity:1" fill="#4f1d0b" d="M 80.5,49.5 C 75.7292,50.7211 71.3958,52.7211 67.5,55.5C 67.5,54.8333 67.5,54.1667 67.5,53.5C 67.3284,52.5084 67.6618,51.8417 68.5,51.5C 71.9591,50.4262 75.4591,49.4262 79,48.5C 79.7648,48.5699 80.2648,48.9033 80.5,49.5 Z"/></g>
<g><path style="opacity:1" fill="#853114" d="M 80.5,49.5 C 80.5,51.8333 80.5,54.1667 80.5,56.5C 75.9677,56.8182 71.6344,56.4849 67.5,55.5C 71.3958,52.7211 75.7292,50.7211 80.5,49.5 Z"/></g>
<g><path style="opacity:1" fill="#e07d28" d="M 105.5,60.5 C 105.158,61.3382 104.492,61.6716 103.5,61.5C 101.201,60.8621 99.0344,59.8621 97,58.5C 96.654,60.2182 96.154,61.8849 95.5,63.5C 92.8333,64.1667 90.1667,64.8333 87.5,65.5C 88.9479,66.3539 90.2813,67.3539 91.5,68.5C 93.5159,67.2941 95.5159,67.2941 97.5,68.5C 95.5934,69.3699 93.7601,70.3699 92,71.5C 90.518,69.8881 88.6847,68.8881 86.5,68.5C 86.5,70.1667 86.5,71.8333 86.5,73.5C 85.5,72.8333 84.5,72.1667 83.5,71.5C 82.0582,70.1805 81.3915,68.5138 81.5,66.5C 84.7947,67.8245 86.128,66.4911 85.5,62.5C 85.5394,61.4168 85.8728,60.4168 86.5,59.5C 85.8333,58.8333 85.1667,58.1667 84.5,57.5C 86.0624,54.6903 88.229,53.6903 91,54.5C 91.49,53.2068 91.6567,51.8734 91.5,50.5C 92.1635,52.0419 92.8302,53.7086 93.5,55.5C 94.1667,54.8333 94.8333,54.1667 95.5,53.5C 100.295,54.7087 102.295,52.7087 101.5,47.5C 102.5,47.5 103.5,47.5 104.5,47.5C 104.739,51.8422 105.073,56.1756 105.5,60.5 Z"/></g>
<g><path style="opacity:1" fill="#a44c00" d="M 104.5,30.5 C 105.749,33.0903 107.416,35.4236 109.5,37.5C 110.349,47.8233 110.515,58.1566 110,68.5C 108.154,71.2045 106.987,74.2045 106.5,77.5C 106.043,78.2975 105.376,78.6309 104.5,78.5C 106.228,69.7481 107.561,60.9148 108.5,52C 108.475,49.0706 107.809,46.5706 106.5,44.5C 106.261,42.5328 106.594,40.6995 107.5,39C 105.415,36.5806 104.415,33.7472 104.5,30.5 Z"/></g>
<g><path style="opacity:1" fill="#e9a162" d="M 5.5,40.5 C 5.60844,45.7105 6.2751,50.7105 7.5,55.5C 7.5,56.5 7.5,57.5 7.5,58.5C 6.20577,57.7101 5.0391,56.7101 4,55.5C 3.33333,51.1667 3.33333,46.8333 4,42.5C 4.27842,41.5842 4.77842,40.9175 5.5,40.5 Z"/></g>
<g><path style="opacity:1" fill="#6b1703" d="M 48.5,43.5 C 51.9154,44.1954 54.5821,45.8621 56.5,48.5C 55.5041,48.4142 54.6708,48.7476 54,49.5C 51.5324,53.129 50.3657,57.129 50.5,61.5C 48.8762,61.6399 47.7096,60.9733 47,59.5C 46.5172,60.448 46.3505,61.448 46.5,62.5C 42.5931,62.4867 38.9264,61.6534 35.5,60C 38.3471,59.0561 40.8471,59.5561 43,61.5C 43.8722,58.0283 43.0389,55.0283 40.5,52.5C 35.6833,51.8331 31.0166,51.1665 26.5,50.5C 34.5,50.5 42.5,50.5 50.5,50.5C 50.5,49.5 50.5,48.5 50.5,47.5C 49.8333,46.1667 49.1667,44.8333 48.5,43.5 Z"/></g>
<g><path style="opacity:1" fill="#581e05" d="M 27.5,63.5 C 26.0762,61.4855 25.4095,59.1522 25.5,56.5C 30.1667,56.5 34.8333,56.5 39.5,56.5C 40.2216,56.0825 40.7216,55.4158 41,54.5C 41.6838,55.7839 41.5171,56.9505 40.5,58C 36.1794,58.499 31.8461,58.6657 27.5,58.5C 27.5,60.1667 27.5,61.8333 27.5,63.5 Z"/></g>
<g><path style="opacity:1" fill="#4b1204" d="M 63.5,54.5 C 60.4462,56.8705 57.1128,58.8705 53.5,60.5C 52.8933,60.3764 52.56,60.0431 52.5,59.5C 55.5538,57.1295 58.8872,55.1295 62.5,53.5C 63.1067,53.6236 63.44,53.9569 63.5,54.5 Z"/></g>
<g><path style="opacity:1" fill="#d97c2f" d="M 75.5,39.5 C 76.1667,39.5 76.8333,39.5 77.5,39.5C 77.3893,40.1174 77.056,40.6174 76.5,41C 77.4158,41.2784 78.0825,41.7784 78.5,42.5C 77.537,43.3635 77.537,44.0302 78.5,44.5C 79.7362,43.7542 81.0695,43.4208 82.5,43.5C 81.7564,46.9496 83.0897,48.6162 86.5,48.5C 86.1052,45.4775 87.1052,44.4775 89.5,45.5C 90.1698,47.2914 90.8365,48.9581 91.5,50.5C 91.6567,51.8734 91.49,53.2068 91,54.5C 88.229,53.6903 86.0624,54.6903 84.5,57.5C 85.1667,58.1667 85.8333,58.8333 86.5,59.5C 85.8728,60.4168 85.5394,61.4168 85.5,62.5C 82.8205,62.3274 80.4872,61.3274 78.5,59.5C 77.5713,60.6888 77.238,62.0222 77.5,63.5C 76.193,61.7768 76.193,59.9435 77.5,58C 73.8484,57.5014 70.1817,57.3347 66.5,57.5C 66.2322,55.901 66.5655,54.5676 67.5,53.5C 67.5,54.1667 67.5,54.8333 67.5,55.5C 71.6344,56.4849 75.9677,56.8182 80.5,56.5C 80.5,54.1667 80.5,51.8333 80.5,49.5C 80.2648,48.9033 79.7648,48.5699 79,48.5C 75.4591,49.4262 71.9591,50.4262 68.5,51.5C 67.3398,50.735 66.3398,49.735 65.5,48.5C 65.8333,48.1667 66.1667,47.8333 66.5,47.5C 67.5,48.1667 68.5,48.8333 69.5,49.5C 70.5284,47.5599 70.5284,45.5599 69.5,43.5C 69.7472,42.2867 70.4138,41.62 71.5,41.5C 72.3132,42.6527 73.3132,42.6527 74.5,41.5C 75.2975,41.0431 75.6309,40.3764 75.5,39.5 Z"/></g>
<g><path style="opacity:1" fill="#de771f" d="M 71.5,41.5 C 70.4138,41.62 69.7472,42.2867 69.5,43.5C 70.5284,45.5599 70.5284,47.5599 69.5,49.5C 68.5,48.8333 67.5,48.1667 66.5,47.5C 66.1667,47.8333 65.8333,48.1667 65.5,48.5C 66.3398,49.735 67.3398,50.735 68.5,51.5C 67.6618,51.8417 67.3284,52.5084 67.5,53.5C 66.5655,54.5676 66.2322,55.901 66.5,57.5C 70.1817,57.3347 73.8484,57.5014 77.5,58C 76.193,59.9435 76.193,61.7768 77.5,63.5C 77.6309,64.3764 77.2975,65.0431 76.5,65.5C 75.5713,64.3112 75.238,62.9778 75.5,61.5C 74.1667,61.5 72.8333,61.5 71.5,61.5C 68.7938,61.5751 66.1272,61.9084 63.5,62.5C 63.5,59.8333 63.5,57.1667 63.5,54.5C 63.44,53.9569 63.1067,53.6236 62.5,53.5C 58.8872,55.1295 55.5538,57.1295 52.5,59.5C 51.9569,59.44 51.6236,59.1067 51.5,58.5C 53.1799,55.1401 54.8466,51.8068 56.5,48.5C 57.2216,48.0825 57.7216,47.4158 58,46.5C 58.8333,47.5 59.6667,48.5 60.5,49.5C 61.5223,49.1445 62.189,48.4778 62.5,47.5C 64.5,47.5 65.5,46.5 65.5,44.5C 66.3362,40.8094 68.3362,39.8094 71.5,41.5 Z"/></g>
<g><path style="opacity:1" fill="#82300e" d="M 26.5,50.5 C 31.0166,51.1665 35.6833,51.8331 40.5,52.5C 43.0389,55.0283 43.8722,58.0283 43,61.5C 40.8471,59.5561 38.3471,59.0561 35.5,60C 38.9264,61.6534 42.5931,62.4867 46.5,62.5C 50.7016,62.1832 54.7016,62.5166 58.5,63.5C 48.1667,63.5 37.8333,63.5 27.5,63.5C 27.5,61.8333 27.5,60.1667 27.5,58.5C 31.8461,58.6657 36.1794,58.499 40.5,58C 41.5171,56.9505 41.6838,55.7839 41,54.5C 40.7216,55.4158 40.2216,56.0825 39.5,56.5C 39.5,55.5 39.5,54.5 39.5,53.5C 34.8333,53.5 30.1667,53.5 25.5,53.5C 25.2627,52.209 25.596,51.209 26.5,50.5 Z"/></g>
<g><path style="opacity:1" fill="#8b401a" d="M 85.5,62.5 C 86.128,66.4911 84.7947,67.8245 81.5,66.5C 80.1667,65.5 78.8333,64.5 77.5,63.5C 77.238,62.0222 77.5713,60.6888 78.5,59.5C 80.4872,61.3274 82.8205,62.3274 85.5,62.5 Z"/></g>
<g><path style="opacity:1" fill="#e07f28" d="M 9.5,54.5 C 9.83333,54.5 10.1667,54.5 10.5,54.5C 11.8409,56.12 13.6742,57.12 16,57.5C 16.5875,61.3092 16.0875,64.9759 14.5,68.5C 15.8443,71.1887 17.1777,73.8553 18.5,76.5C 18.573,78.0269 17.9063,79.0269 16.5,79.5C 12.6103,72.5908 10.277,65.2575 9.5,57.5C 9.5,56.5 9.5,55.5 9.5,54.5 Z"/></g>
<g><path style="opacity:1" fill="#904401" d="M 1.5,41.5 C 0.543229,48.4774 0.376562,55.4774 1,62.5C 3.03989,67.5824 4.20656,72.9158 4.5,78.5C 2.23691,74.3745 0.570243,70.0412 -0.5,65.5C -0.5,58.8333 -0.5,52.1667 -0.5,45.5C 0.166667,44.1667 0.833333,42.8333 1.5,41.5 Z"/></g>
<g><path style="opacity:1" fill="#5a3517" d="M 58.5,66.5 C 48.5,67.1667 38.5,67.8333 28.5,68.5C 27.9569,68.44 27.6236,68.1067 27.5,67.5C 37.8119,66.5014 48.1452,66.1681 58.5,66.5 Z"/></g>
<g><path style="opacity:1" fill="#391100" d="M 38.5,68.5 C 35.1667,68.5 31.8333,68.5 28.5,68.5C 38.5,67.8333 48.5,67.1667 58.5,66.5C 59.2216,66.0825 59.7216,65.4158 60,64.5C 60.6838,65.7839 60.5171,66.9505 59.5,68C 52.5079,68.4996 45.5079,68.6663 38.5,68.5 Z"/></g>
<g><path style="opacity:1" fill="#7c2405" d="M 56.5,48.5 C 54.8466,51.8068 53.1799,55.1401 51.5,58.5C 51.6236,59.1067 51.9569,59.44 52.5,59.5C 52.56,60.0431 52.8933,60.3764 53.5,60.5C 57.1128,58.8705 60.4462,56.8705 63.5,54.5C 63.5,57.1667 63.5,59.8333 63.5,62.5C 66.1272,61.9084 68.7938,61.5751 71.5,61.5C 70.7822,63.1368 70.6155,64.8034 71,66.5C 72.9923,67.3281 74.4923,68.6614 75.5,70.5C 75.5,71.1667 75.1667,71.5 74.5,71.5C 73.0267,70.9285 71.36,70.9285 69.5,71.5C 68.8333,69.1667 68.1667,66.8333 67.5,64.5C 65.8561,64.7135 64.3561,64.3802 63,63.5C 61.9267,68.0455 63.0934,71.8788 66.5,75C 61.9509,74.8671 57.4509,75.0338 53,75.5C 50.2299,74.4546 47.3966,73.788 44.5,73.5C 44.5,72.5 44.5,71.5 44.5,70.5C 41.9899,70.9465 39.9899,70.2798 38.5,68.5C 45.5079,68.6663 52.5079,68.4996 59.5,68C 60.5171,66.9505 60.6838,65.7839 60,64.5C 59.7216,65.4158 59.2216,66.0825 58.5,66.5C 58.5,65.5 58.5,64.5 58.5,63.5C 54.7016,62.5166 50.7016,62.1832 46.5,62.5C 46.3505,61.448 46.5172,60.448 47,59.5C 47.7096,60.9733 48.8762,61.6399 50.5,61.5C 50.3657,57.129 51.5324,53.129 54,49.5C 54.6708,48.7476 55.5041,48.4142 56.5,48.5 Z"/></g>
<g><path style="opacity:1" fill="#90471d" d="M 28.5,68.5 C 31.8333,68.5 35.1667,68.5 38.5,68.5C 39.9899,70.2798 41.9899,70.9465 44.5,70.5C 44.5,71.5 44.5,72.5 44.5,73.5C 41.4521,75.1187 38.1188,76.1187 34.5,76.5C 34.1667,76.5 33.8333,76.5 33.5,76.5C 36.4032,74.8962 39.7366,73.8962 43.5,73.5C 39.5546,72.5091 35.5546,72.1758 31.5,72.5C 30.0256,71.5637 29.0256,70.2303 28.5,68.5 Z"/></g>
<g><path style="opacity:1" fill="#791906" d="M 74.5,71.5 C 73.7974,73.7157 72.4641,75.549 70.5,77C 63.3983,80.9508 55.7317,83.1174 47.5,83.5C 45.6916,83.5086 44.0249,83.0086 42.5,82C 45.8168,81.5017 49.1501,81.335 52.5,81.5C 52.5,80.5 52.5,79.5 52.5,78.5C 46.8236,78.6661 41.1569,78.4994 35.5,78C 34.944,77.6174 34.6107,77.1174 34.5,76.5C 38.1188,76.1187 41.4521,75.1187 44.5,73.5C 47.3966,73.788 50.2299,74.4546 53,75.5C 57.4509,75.0338 61.9509,74.8671 66.5,75C 63.0934,71.8788 61.9267,68.0455 63,63.5C 64.3561,64.3802 65.8561,64.7135 67.5,64.5C 68.1667,66.8333 68.8333,69.1667 69.5,71.5C 71.36,70.9285 73.0267,70.9285 74.5,71.5 Z"/></g>
<g><path style="opacity:1" fill="#f3caa8" d="M 9.5,57.5 C 10.277,65.2575 12.6103,72.5908 16.5,79.5C 17.8868,84.358 17.2201,84.6913 14.5,80.5C 13.7281,79.3065 12.7281,78.3065 11.5,77.5C 10.6993,75.9582 10.366,74.2915 10.5,72.5C 9.5,72.5 8.5,72.5 7.5,72.5C 7.52276,70.4004 6.85609,68.5671 5.5,67C 7.14584,64.405 7.81251,61.5716 7.5,58.5C 8.30192,59.9516 8.80192,61.6183 9,63.5C 9.49546,61.5273 9.66212,59.5273 9.5,57.5 Z"/></g>
<g><path style="opacity:1" fill="#e49551" d="M 10.5,54.5 C 13.5184,54.3354 16.5184,54.502 19.5,55C 20.1667,55.6667 20.8333,56.3333 21.5,57C 20.572,57.3879 19.9054,58.0546 19.5,59C 20.5633,62.1533 21.5633,65.32 22.5,68.5C 23.4168,67.8728 24.4168,67.5394 25.5,67.5C 23.9671,69.7896 24.3004,70.4563 26.5,69.5C 27.7388,71.0072 27.4054,72.1739 25.5,73C 27.7116,73.7891 29.7116,73.6225 31.5,72.5C 35.5546,72.1758 39.5546,72.5091 43.5,73.5C 39.7366,73.8962 36.4032,74.8962 33.5,76.5C 32.9744,78.2303 31.9744,79.5637 30.5,80.5C 29.5,81.5 28.5,82.5 27.5,83.5C 23.8061,79.7448 24.1394,77.0782 28.5,75.5C 27.2243,74.3554 25.891,74.3554 24.5,75.5C 23.4104,74.6086 23.4104,73.6086 24.5,72.5C 22.9547,71.5481 21.288,71.2148 19.5,71.5C 19.4208,72.9305 19.7542,74.2638 20.5,75.5C 20.0431,76.2975 19.3764,76.6309 18.5,76.5C 17.1777,73.8553 15.8443,71.1887 14.5,68.5C 16.0875,64.9759 16.5875,61.3092 16,57.5C 13.6742,57.12 11.8409,56.12 10.5,54.5 Z"/></g>
<g><path style="opacity:1" fill="#6f3300" d="M 109.5,37.5 C 110.651,39.7791 111.651,42.1124 112.5,44.5C 112.5,51.8333 112.5,59.1667 112.5,66.5C 110.799,72.9397 108.132,78.9397 104.5,84.5C 104.5,82.5 104.5,80.5 104.5,78.5C 105.376,78.6309 106.043,78.2975 106.5,77.5C 106.987,74.2045 108.154,71.2045 110,68.5C 110.515,58.1566 110.349,47.8233 109.5,37.5 Z"/></g>
<g><path style="opacity:1" fill="#df8538" d="M 71.5,61.5 C 72.8333,61.5 74.1667,61.5 75.5,61.5C 75.238,62.9778 75.5713,64.3112 76.5,65.5C 77.2975,65.0431 77.6309,64.3764 77.5,63.5C 78.8333,64.5 80.1667,65.5 81.5,66.5C 81.3915,68.5138 82.0582,70.1805 83.5,71.5C 82.5489,72.9187 82.2155,74.5853 82.5,76.5C 82.7413,78.8863 82.0746,80.8863 80.5,82.5C 79.448,82.6495 78.448,82.4828 77.5,82C 76.1314,78.4881 73.7981,77.6548 70.5,79.5C 72.1271,77.3702 73.9604,75.3702 76,73.5C 76.7401,72.2506 76.5735,71.2506 75.5,70.5C 74.4923,68.6614 72.9923,67.3281 71,66.5C 70.6155,64.8034 70.7822,63.1368 71.5,61.5 Z"/></g>
<g><path style="opacity:1" fill="#7a2c13" d="M 83.5,71.5 C 84.5,72.1667 85.5,72.8333 86.5,73.5C 86.205,75.4233 85.3717,77.0899 84,78.5C 83.7216,77.5842 83.2216,76.9175 82.5,76.5C 82.2155,74.5853 82.5489,72.9187 83.5,71.5 Z"/></g>
<g><path style="opacity:1" fill="#df7820" d="M 103.5,61.5 C 100.459,75.0653 92.7921,86.3987 80.5,95.5C 79.1667,95.5 77.8333,95.5 76.5,95.5C 76.9175,94.7784 77.5842,94.2784 78.5,94C 75.7132,91.8328 74.8799,88.9994 76,85.5C 77.4087,84.2189 78.9087,83.2189 80.5,82.5C 82.0746,80.8863 82.7413,78.8863 82.5,76.5C 83.2216,76.9175 83.7216,77.5842 84,78.5C 85.3717,77.0899 86.205,75.4233 86.5,73.5C 86.5,71.8333 86.5,70.1667 86.5,68.5C 88.6847,68.8881 90.518,69.8881 92,71.5C 93.7601,70.3699 95.5934,69.3699 97.5,68.5C 95.5159,67.2941 93.5159,67.2941 91.5,68.5C 90.2813,67.3539 88.9479,66.3539 87.5,65.5C 90.1667,64.8333 92.8333,64.1667 95.5,63.5C 96.154,61.8849 96.654,60.2182 97,58.5C 99.0344,59.8621 101.201,60.8621 103.5,61.5 Z"/></g>
<g><path style="opacity:1" fill="#9b4b37" d="M 75.5,70.5 C 76.5735,71.2506 76.7401,72.2506 76,73.5C 73.9604,75.3702 72.1271,77.3702 70.5,79.5C 69.391,79.5569 68.391,79.8902 67.5,80.5C 63.7153,82.4282 59.7153,83.7616 55.5,84.5C 52.6146,84.8064 49.9479,84.4731 47.5,83.5C 55.7317,83.1174 63.3983,80.9508 70.5,77C 72.4641,75.549 73.7974,73.7157 74.5,71.5C 75.1667,71.5 75.5,71.1667 75.5,70.5 Z"/></g>
<g><path style="opacity:1" fill="#d36301" d="M 106.5,44.5 C 107.809,46.5706 108.475,49.0706 108.5,52C 107.561,60.9148 106.228,69.7481 104.5,78.5C 101.721,81.7269 98.7213,84.7269 95.5,87.5C 92.8719,89.9642 90.3719,92.6308 88,95.5C 85.589,96.1273 83.089,96.1273 80.5,95.5C 92.7921,86.3987 100.459,75.0653 103.5,61.5C 104.492,61.6716 105.158,61.3382 105.5,60.5C 106.488,55.3595 106.821,50.0262 106.5,44.5 Z"/></g>
<g><path style="opacity:1" fill="#e9a163" d="M 27.5,83.5 C 28.1408,84.4822 28.8075,85.4822 29.5,86.5C 29.1667,86.8333 28.8333,87.1667 28.5,87.5C 25.003,85.9873 21.6697,84.4873 18.5,83C 20.1667,84.6667 21.8333,86.3333 23.5,88C 25.8098,88.4966 28.1432,88.6633 30.5,88.5C 30.3398,90.1992 30.5065,91.8659 31,93.5C 31.414,93.0426 31.914,92.7093 32.5,92.5C 33.2621,93.6283 33.9288,94.7949 34.5,96C 32.4473,96.3247 30.4473,95.9913 28.5,95C 25.8967,92.2025 22.8967,90.0358 19.5,88.5C 17.7428,87.708 16.4095,86.3747 15.5,84.5C 14.5713,83.3112 14.238,81.9778 14.5,80.5C 17.2201,84.6913 17.8868,84.358 16.5,79.5C 17.9063,79.0269 18.573,78.0269 18.5,76.5C 19.3764,76.6309 20.0431,76.2975 20.5,75.5C 19.7542,74.2638 19.4208,72.9305 19.5,71.5C 21.288,71.2148 22.9547,71.5481 24.5,72.5C 23.4104,73.6086 23.4104,74.6086 24.5,75.5C 25.891,74.3554 27.2243,74.3554 28.5,75.5C 24.1394,77.0782 23.8061,79.7448 27.5,83.5 Z"/></g>
<g><path style="opacity:1" fill="#cd650b" d="M 11.5,77.5 C 12.7281,78.3065 13.7281,79.3065 14.5,80.5C 14.238,81.9778 14.5713,83.3112 15.5,84.5C 16.4095,86.3747 17.7428,87.708 19.5,88.5C 20.8011,90.6719 21.8011,93.0052 22.5,95.5C 24.099,95.2322 25.4324,95.5655 26.5,96.5C 27.252,98.1003 28.252,99.6003 29.5,101C 34.8156,100.649 38.4822,102.815 40.5,107.5C 34.508,106.337 29.1747,103.837 24.5,100C 21.9094,97.0339 18.9094,94.5339 15.5,92.5C 13.9668,90.711 12.9668,88.711 12.5,86.5C 11.701,83.5701 11.3677,80.5701 11.5,77.5 Z"/></g>
<g><path style="opacity:1" fill="#e28638" d="M 67.5,80.5 C 70.1835,82.695 71.8502,85.5283 72.5,89C 72.2664,90.7324 71.2664,91.5658 69.5,91.5C 66.4701,90.6578 63.4701,90.1578 60.5,90C 62.9423,92.2253 64.6089,94.892 65.5,98C 65.1382,99.4343 64.4715,100.601 63.5,101.5C 60.5,101.5 57.5,101.5 54.5,101.5C 54.5,99.8333 54.5,98.1667 54.5,96.5C 52.7839,96.3713 51.1172,96.038 49.5,95.5C 50.8111,92.8669 52.3111,92.8669 54,95.5C 55.236,93.4616 57.0694,92.2949 59.5,92C 57.7444,91.7978 56.0777,91.2978 54.5,90.5C 55.3482,88.5914 55.6816,86.5914 55.5,84.5C 59.7153,83.7616 63.7153,82.4282 67.5,80.5 Z"/></g>
<g><path style="opacity:1" fill="#dc741d" d="M 33.5,76.5 C 33.8333,76.5 34.1667,76.5 34.5,76.5C 34.6107,77.1174 34.944,77.6174 35.5,78C 41.1569,78.4994 46.8236,78.6661 52.5,78.5C 52.5,79.5 52.5,80.5 52.5,81.5C 49.1501,81.335 45.8168,81.5017 42.5,82C 44.0249,83.0086 45.6916,83.5086 47.5,83.5C 49.9479,84.4731 52.6146,84.8064 55.5,84.5C 55.6816,86.5914 55.3482,88.5914 54.5,90.5C 56.0777,91.2978 57.7444,91.7978 59.5,92C 57.0694,92.2949 55.236,93.4616 54,95.5C 52.3111,92.8669 50.8111,92.8669 49.5,95.5C 49.44,96.0431 49.1067,96.3764 48.5,96.5C 46.8513,95.3523 45.3513,94.019 44,92.5C 40.6539,93.0891 40.6539,92.4224 44,90.5C 44.346,88.7818 44.846,87.1151 45.5,85.5C 45,85.1667 44.5,84.8333 44,84.5C 41.7651,85.8962 40.5985,87.8962 40.5,90.5C 37.8333,89.8333 35.1667,89.1667 32.5,88.5C 32.6349,85.5825 31.9682,82.9158 30.5,80.5C 31.9744,79.5637 32.9744,78.2303 33.5,76.5 Z"/></g>
<g><path style="opacity:1" fill="#e07d27" d="M 80.5,82.5 C 78.9087,83.2189 77.4087,84.2189 76,85.5C 74.8799,88.9994 75.7132,91.8328 78.5,94C 77.5842,94.2784 76.9175,94.7784 76.5,95.5C 76.4226,96.7498 75.756,97.5831 74.5,98C 71.0233,99.6585 67.3566,100.825 63.5,101.5C 64.4715,100.601 65.1382,99.4343 65.5,98C 64.6089,94.892 62.9423,92.2253 60.5,90C 63.4701,90.1578 66.4701,90.6578 69.5,91.5C 71.2664,91.5658 72.2664,90.7324 72.5,89C 71.8502,85.5283 70.1835,82.695 67.5,80.5C 68.391,79.8902 69.391,79.5569 70.5,79.5C 73.7981,77.6548 76.1314,78.4881 77.5,82C 78.448,82.4828 79.448,82.6495 80.5,82.5 Z"/></g>
<g><path style="opacity:1" fill="#e1812e" d="M 30.5,80.5 C 31.9682,82.9158 32.6349,85.5825 32.5,88.5C 35.1667,89.1667 37.8333,89.8333 40.5,90.5C 40.5985,87.8962 41.7651,85.8962 44,84.5C 44.5,84.8333 45,85.1667 45.5,85.5C 44.846,87.1151 44.346,88.7818 44,90.5C 40.6539,92.4224 40.6539,93.0891 44,92.5C 45.3513,94.019 46.8513,95.3523 48.5,96.5C 49.1067,96.3764 49.44,96.0431 49.5,95.5C 51.1172,96.038 52.7839,96.3713 54.5,96.5C 54.5,98.1667 54.5,99.8333 54.5,101.5C 57.5,101.5 60.5,101.5 63.5,101.5C 63.5,101.833 63.5,102.167 63.5,102.5C 54.1646,102.963 45.1646,101.63 36.5,98.5C 35.2284,98.5698 34.0617,98.9032 33,99.5C 30.9656,98.1379 28.7989,97.1379 26.5,96.5C 25.4324,95.5655 24.099,95.2322 22.5,95.5C 21.8011,93.0052 20.8011,90.6719 19.5,88.5C 22.8967,90.0358 25.8967,92.2025 28.5,95C 30.4473,95.9913 32.4473,96.3247 34.5,96C 33.9288,94.7949 33.2621,93.6283 32.5,92.5C 31.914,92.7093 31.414,93.0426 31,93.5C 30.5065,91.8659 30.3398,90.1992 30.5,88.5C 28.1432,88.6633 25.8098,88.4966 23.5,88C 21.8333,86.3333 20.1667,84.6667 18.5,83C 21.6697,84.4873 25.003,85.9873 28.5,87.5C 28.8333,87.1667 29.1667,86.8333 29.5,86.5C 28.8075,85.4822 28.1408,84.4822 27.5,83.5C 28.5,82.5 29.5,81.5 30.5,80.5 Z"/></g>
<g><path style="opacity:1" fill="#ce6001" d="M 95.5,87.5 C 95.6567,88.8734 95.49,90.2068 95,91.5C 92.8282,92.5089 91.6615,94.1756 91.5,96.5C 89.1944,96.9926 86.861,97.3259 84.5,97.5C 84.719,98.675 84.3857,99.675 83.5,100.5C 76.3205,104.336 68.6539,106.003 60.5,105.5C 61.3065,104.272 62.3065,103.272 63.5,102.5C 63.5,102.167 63.5,101.833 63.5,101.5C 67.3566,100.825 71.0233,99.6585 74.5,98C 75.756,97.5831 76.4226,96.7498 76.5,95.5C 77.8333,95.5 79.1667,95.5 80.5,95.5C 83.089,96.1273 85.589,96.1273 88,95.5C 90.3719,92.6308 92.8719,89.9642 95.5,87.5 Z"/></g>
<g><path style="opacity:1" fill="#ac5000" d="M 104.5,78.5 C 104.5,80.5 104.5,82.5 104.5,84.5C 102.112,85.2187 100.612,86.8854 100,89.5C 96.5,91.6667 93.6667,94.5 91.5,98C 85.9828,100.731 80.6495,103.565 75.5,106.5C 64.0684,108.521 52.7351,108.854 41.5,107.5C 47.1764,107.666 52.8431,107.499 58.5,107C 59.4158,106.722 60.0825,106.222 60.5,105.5C 68.6539,106.003 76.3205,104.336 83.5,100.5C 84.3857,99.675 84.719,98.675 84.5,97.5C 86.861,97.3259 89.1944,96.9926 91.5,96.5C 91.6615,94.1756 92.8282,92.5089 95,91.5C 95.49,90.2068 95.6567,88.8734 95.5,87.5C 98.7213,84.7269 101.721,81.7269 104.5,78.5 Z"/></g>
<g><path style="opacity:1" fill="#793700" d="M 104.5,84.5 C 96.0012,98.5985 83.6678,107.599 67.5,111.5C 60.1667,111.5 52.8333,111.5 45.5,111.5C 45.5,111.167 45.5,110.833 45.5,110.5C 52.5079,110.666 59.5079,110.5 66.5,110C 69.865,109.495 72.865,108.328 75.5,106.5C 80.6495,103.565 85.9828,100.731 91.5,98C 93.6667,94.5 96.5,91.6667 100,89.5C 100.612,86.8854 102.112,85.2187 104.5,84.5 Z"/></g>
<g><path style="opacity:1" fill="#d66503" d="M 26.5,96.5 C 28.7989,97.1379 30.9656,98.1379 33,99.5C 34.0617,98.9032 35.2284,98.5698 36.5,98.5C 45.1646,101.63 54.1646,102.963 63.5,102.5C 62.3065,103.272 61.3065,104.272 60.5,105.5C 60.0825,106.222 59.4158,106.722 58.5,107C 52.8431,107.499 47.1764,107.666 41.5,107.5C 41.1667,107.5 40.8333,107.5 40.5,107.5C 38.4822,102.815 34.8156,100.649 29.5,101C 28.252,99.6003 27.252,98.1003 26.5,96.5 Z"/></g>
<g><path style="opacity:1" fill="#904300" d="M 4.5,78.5 C 7.5,80.8333 10.1667,83.5 12.5,86.5C 12.9668,88.711 13.9668,90.711 15.5,92.5C 18.9094,94.5339 21.9094,97.0339 24.5,100C 29.1747,103.837 34.508,106.337 40.5,107.5C 40.8333,107.5 41.1667,107.5 41.5,107.5C 52.7351,108.854 64.0684,108.521 75.5,106.5C 72.865,108.328 69.865,109.495 66.5,110C 59.5079,110.5 52.5079,110.666 45.5,110.5C 26.0178,107.262 12.3511,96.5949 4.5,78.5 Z"/></g>
</svg>
