<?xml version="1.0" standalone="no"?>
<!DOCTYPE svg PUBLIC "-//W3C//DTD SVG 20010904//EN"
 "http://www.w3.org/TR/2001/REC-SVG-20010904/DTD/svg10.dtd">
<svg version="1.0" xmlns="http://www.w3.org/2000/svg"
 width="113.000000pt" height="112.000000pt" viewBox="0 0 113.000000 112.000000"
 preserveAspectRatio="xMidYMid meet">

<g transform="translate(0.000000,112.000000) scale(0.100000,-0.100000)"
fill="#000000" stroke="none">
<path d="M429 1099 c-46 -11 -138 -52 -164 -73 -19 -16 -18 -16 15 -1 19 9 44
21 55 27 81 45 286 61 373 28 28 -11 52 -18 52 -15 0 3 10 0 23 -7 12 -6 27
-13 34 -14 28 -5 81 -57 103 -103 14 -28 31 -51 38 -51 6 0 12 -6 12 -14 0 -7
6 -19 14 -25 7 -6 21 -36 31 -66 10 -34 23 -55 32 -55 8 0 11 -5 8 -10 -4 -6
-11 -8 -16 -5 -10 7 -9 -44 1 -60 4 -5 10 -32 14 -59 7 -54 -18 -154 -41 -163
-7 -3 -13 -17 -13 -32 0 -56 -123 -205 -197 -237 -17 -7 -33 -17 -35 -22 -7
-18 -119 -45 -205 -50 -71 -3 -100 -1 -125 11 -18 9 -57 18 -86 22 -29 3 -63
10 -76 15 -27 10 -106 86 -106 101 0 6 -4 8 -9 4 -15 -9 -43 26 -38 46 3 11 1
19 -5 19 -6 0 -8 7 -4 15 3 9 0 15 -9 15 -16 0 -35 30 -35 56 0 10 -7 26 -16
36 -16 16 -16 18 0 24 10 4 16 18 16 39 0 27 -4 34 -22 37 -21 3 -23 8 -22 58
0 30 4 78 7 105 l7 50 -16 -45 c-19 -55 -21 -217 -4 -280 39 -144 162 -296
290 -358 365 -179 787 61 817 463 19 254 -163 505 -412 570 -64 16 -225 19
-286 4z"/>
<path d="M560 1010 c0 -5 6 -10 13 -13 9 -3 9 -8 -2 -18 -9 -9 -11 -9 -7 -1 4
7 1 12 -8 12 -9 0 -16 5 -16 11 0 6 -14 9 -32 7 -18 -2 -33 -7 -33 -13 0 -17
-16 -35 -31 -35 -8 0 -14 5 -14 10 0 6 4 9 9 8 8 -3 11 2 11 16 0 3 -14 0 -32
-6 l-31 -11 22 -18 c18 -15 20 -22 11 -38 -8 -16 -8 -19 3 -15 21 8 36 -17 30
-49 -4 -19 -17 -34 -42 -47 -21 -10 -43 -26 -50 -34 -12 -14 -7 -16 40 -17
l54 -1 -40 -9 c-61 -12 -75 -11 -75 9 -1 16 -70 -94 -70 -110 0 -5 42 -8 94
-8 53 0 98 -4 101 -10 4 -6 -30 -10 -95 -10 -81 0 -102 -3 -107 -15 -8 -23 -2
-26 74 -34 l68 -8 -57 -2 c-72 -1 -88 -8 -88 -36 0 -55 0 -55 171 -55 99 0
159 -4 159 -10 0 -6 -58 -10 -155 -10 -85 0 -155 -2 -155 -5 0 -2 5 -16 12
-30 10 -23 16 -25 80 -25 79 0 91 -16 18 -26 -49 -6 -50 -7 -34 -25 13 -15 33
-19 83 -21 l66 -1 -50 -7 -50 -6 37 -17 c47 -22 113 -22 191 0 51 14 70 26
105 65 l44 47 -35 31 c-25 21 -34 36 -30 50 5 18 0 20 -36 20 -36 0 -41 3 -40
23 0 12 3 16 6 9 3 -8 9 -10 16 -4 7 5 40 12 74 14 35 2 65 6 67 9 2 2 7 25
11 50 l7 47 -72 -26 c-48 -17 -74 -32 -78 -44 -5 -22 -18 -23 -26 -3 -4 13
-10 14 -26 5 -11 -6 -28 -10 -38 -8 -9 2 -16 -2 -15 -8 1 -5 -7 -15 -18 -22
-17 -11 -16 -7 6 44 30 69 31 71 3 80 -39 11 -49 24 -37 46 9 16 13 17 22 8 9
-10 9 -14 -1 -17 -6 -3 -10 -9 -6 -14 8 -13 52 -11 57 4 3 6 4 -1 1 -18 -2
-16 0 -36 5 -44 7 -11 13 -10 34 5 22 16 25 26 23 67 -2 39 1 51 18 62 16 12
22 12 28 2 6 -9 10 -9 17 3 5 8 7 18 5 22 -3 4 1 8 9 8 14 0 27 20 27 39 0 4
-18 13 -41 20 -36 11 -43 10 -60 -5 -11 -10 -19 -12 -19 -6 0 7 8 17 18 23 13
8 17 20 14 42 -3 21 -1 28 7 23 6 -4 9 -11 6 -16 -7 -12 25 -50 42 -50 7 0 13
2 13 5 0 11 -26 50 -42 66 -23 21 -22 25 1 32 13 3 18 0 15 -8 -4 -9 3 -11 22
-7 24 4 25 6 8 15 -10 6 -36 16 -59 22 -34 10 -42 10 -52 -4 -11 -15 -12 -14
-13 2 0 9 -6 17 -12 18 -7 0 -21 2 -30 4 -10 2 -18 0 -18 -5z m103 -82 c-3
-21 -9 -38 -14 -38 -10 0 -12 73 -2 84 13 13 20 -9 16 -46z m-40 35 c2 -5 -5
-17 -16 -27 -18 -17 -20 -17 -14 -2 4 10 7 22 7 27 0 11 17 12 23 2z m-83 -83
c10 -23 19 -30 39 -29 14 0 20 3 14 6 -18 7 -16 20 2 20 8 0 15 -9 15 -19 0
-15 -8 -18 -45 -18 -38 0 -43 3 -38 18 3 9 3 14 -2 10 -10 -10 -38 19 -30 32
12 19 33 10 45 -20z m90 -70 c-6 -11 -13 -20 -16 -20 -2 0 0 9 6 20 6 11 13
20 16 20 2 0 0 -9 -6 -20z m-25 -40 c-3 -5 -11 -10 -16 -10 -6 0 -7 5 -4 10 3
6 11 10 16 10 6 0 7 -4 4 -10z m35 -75 c0 -20 -10 -19 -26 3 -19 25 -17 34 6
22 11 -6 20 -17 20 -25z m-28 -47 c-7 -7 -12 -8 -12 -2 0 14 12 26 19 19 2 -3
-1 -11 -7 -17z"/>
<path d="M143 923 c-55 -67 -64 -87 -14 -33 57 62 64 71 58 76 -2 3 -22 -17
-44 -43z"/>
<path d="M792 932 c2 -9 10 -16 17 -14 7 1 19 -3 27 -9 8 -6 14 -8 14 -3 0 5
-14 17 -31 26 -29 17 -30 17 -27 0z"/>
<path d="M755 920 c-3 -6 1 -7 9 -4 18 7 21 14 7 14 -6 0 -13 -4 -16 -10z"/>
<path d="M417 870 c-3 -13 -3 -28 2 -33 13 -13 19 5 11 33 l-6 25 -7 -25z"/>
<path d="M788 845 c-16 -18 -28 -37 -28 -41 0 -5 -16 -25 -35 -45 l-34 -37 40
-6 c22 -3 47 -2 57 3 9 4 26 5 37 0 20 -7 19 -8 -1 -8 -21 -1 -79 -40 -71 -48
3 -2 26 1 53 7 80 19 79 19 58 36 -17 14 -17 15 -1 10 9 -3 17 -1 17 4 0 6 -9
10 -20 10 -28 0 -25 14 5 28 25 11 35 42 14 42 -5 0 -7 -4 -4 -10 3 -5 2 -10
-4 -10 -18 0 -41 12 -41 22 0 5 6 6 13 2 10 -6 10 -4 0 7 -7 7 -13 26 -13 41
0 36 -8 34 -42 -7z"/>
<path d="M880 872 c0 -6 5 -14 11 -17 6 -4 8 -13 5 -21 -3 -8 0 -11 8 -8 8 3
17 1 21 -5 3 -6 -1 -11 -9 -11 -9 0 -16 -5 -16 -11 0 -6 9 -8 21 -4 16 5 20 3
17 -6 -3 -8 -13 -13 -22 -13 -9 1 -16 -2 -16 -7 0 -5 9 -9 19 -9 30 0 36 35
12 68 -25 36 -51 58 -51 44z"/>
<path d="M240 849 c0 -5 5 -7 10 -4 6 3 10 8 10 11 0 2 -4 4 -10 4 -5 0 -10
-5 -10 -11z"/>
<path d="M850 835 c0 -9 6 -12 15 -9 8 4 12 10 9 15 -8 14 -24 10 -24 -6z"/>
<path d="M60 799 c-12 -23 -20 -43 -18 -45 3 -2 14 17 26 41 27 56 20 60 -8 4z"/>
<path d="M235 820 c-8 -13 -1 -24 14 -19 6 3 7 10 2 18 -6 10 -10 10 -16 1z"/>
<path d="M200 795 c0 -8 2 -15 4 -15 2 0 6 7 10 15 3 8 1 15 -4 15 -6 0 -10
-7 -10 -15z"/>
<path d="M276 786 c3 -9 16 -16 28 -15 14 0 16 2 6 6 -8 3 -21 10 -28 16 -9 7
-11 6 -6 -7z"/>
<path d="M957 747 c-9 -14 -17 -35 -17 -46 0 -11 -5 -32 -12 -46 -8 -18 -8
-29 -1 -36 8 -8 15 4 24 40 l13 51 24 -16 c17 -11 22 -12 16 -3 -5 8 -14 29
-19 48 l-10 35 -18 -27z"/>
<path d="M770 512 c0 -22 16 -43 50 -66 33 -22 37 -21 38 14 1 25 -6 33 -38
50 -48 24 -50 25 -50 2z"/>
<path d="M826 373 c9 -52 20 -60 37 -27 14 26 13 29 -8 46 -33 26 -37 23 -29
-19z"/>
<path d="M840 255 c13 -14 26 -23 28 -20 7 7 -29 45 -41 45 -6 0 0 -11 13 -25z"/>
<path d="M496 234 c-8 -21 -8 -21 14 -27 16 -4 20 0 20 19 0 27 -24 33 -34 8z"/>
</g>
</svg>
