<svg xmlns="http://www.w3.org/2000/svg" version="1.0" width="63.000000pt" height="65.000000pt" viewBox="0 0 63.000000 65.000000" preserveAspectRatio="xMidYMid meet">
<metadata fill="#de7519">
Created by potrace 1.10, written by Peter Selinger 2001-2011
</metadata>
<g transform="translate(0.000000,65.000000) scale(0.100000,-0.100000)" fill="#de7519" stroke="none">
<path d="M0 325 l0 -325 153 1 c115 1 139 3 98 9 -96 14 -198 106 -232 207 -18 55 -7 209 18 258 30 56 89 114 148 141 67 32 189 33 254 3 76 -34 77 -35 26 -94 l-45 -53 28 -5 c17 -4 42 2 70 16 47 25 51 32 22 40 -13 3 -20 13 -20 29 1 22 1 22 26 -7 39 -47 66 -105 74 -160 5 -35 8 -3 9 108 l1 157 -315 0 -315 0 0 -325z" fill="#de7519"/>
<path d="M261 619 c-43 -8 -71 -24 -71 -40 0 -5 12 -4 26 1 14 6 43 10 65 10 32 0 39 3 39 20 0 11 -3 20 -7 19 -5 -1 -28 -5 -52 -10z" fill="#de7519"/>
<path d="M340 595 c0 -8 4 -15 9 -15 5 0 14 7 21 15 10 13 9 15 -9 15 -12 0 -21 -6 -21 -15z" fill="#de7519"/>
<path d="M356 535 c-20 -30 -36 -57 -36 -60 0 -16 35 1 89 44 l61 49 -31 11 c-18 6 -35 11 -39 11 -4 0 -24 -25 -44 -55z" fill="#de7519"/>
<path d="M139 560 l-24 -21 33 16 c31 15 41 25 23 25 -5 0 -19 -9 -32 -20z" fill="#de7519"/>
<path d="M227 559 c-44 -10 -93 -34 -103 -50 -5 -9 7 -10 45 -7 40 4 51 2 51 -9 0 -11 -14 -14 -62 -12 -60 3 -62 2 -85 -31 -13 -19 -23 -39 -23 -45 0 -6 35 -9 96 -7 60 2 101 -1 107 -7 8 -8 -21 -11 -101 -11 -105 0 -112 -1 -112 -20 0 -18 7 -20 66 -20 44 0 63 -4 59 -11 -4 -6 -33 -9 -69 -8 l-61 3 4 -30 c1 -16 5 -32 8 -36 2 -5 67 -8 144 -8 91 0 139 -4 139 -11 0 -7 -45 -9 -135 -7 -74 2 -135 -1 -135 -5 0 -5 5 -17 10 -28 9 -15 22 -19 70 -19 33 0 60 -4 60 -10 0 -5 -23 -10 -52 -10 -48 0 -50 -1 -32 -15 12 -9 43 -14 87 -15 38 0 67 -4 67 -10 0 -5 -24 -10 -52 -10 -45 -1 -50 -2 -33 -12 11 -7 52 -12 90 -12 79 -1 129 20 180 74 l30 31 -32 27 c-26 22 -30 30 -22 45 9 16 7 17 -32 11 l-42 -7 7 47 7 48 -52 -36 c-29 -19 -54 -34 -56 -33 -1 2 9 25 22 52 13 28 25 53 25 57 0 3 -16 12 -35 18 -19 6 -35 15 -35 18 1 4 23 32 50 62 27 30 48 55 47 56 -11 8 -80 10 -110 3z" fill="#de7519"/>
<path d="M385 471 c-9 -15 3 -31 23 -31 10 0 13 -3 7 -8 -6 -4 -16 -20 -24 -37 -12 -29 -12 -29 6 -12 11 9 27 17 35 17 9 0 18 9 21 20 3 11 0 20 -6 20 -6 0 -21 9 -33 21 -14 13 -24 17 -29 10z" fill="#de7519"/>
<path d="M284 459 c-3 -6 0 -15 7 -20 31 -19 59 -4 31 17 -21 17 -29 17 -38 3z" fill="#de7519"/>
<path d="M483 432 c-21 -18 -23 -22 -8 -17 11 4 35 11 53 15 45 11 49 17 13 22 -22 3 -38 -2 -58 -20z" fill="#de7519"/>
<path d="M346 409 c-18 -31 -12 -37 17 -15 18 14 22 32 9 40 -5 3 -16 -8 -26 -25z" fill="#de7519"/>
<path d="M559 417 c-9 -7 -19 -35 -23 -63 -6 -47 -5 -51 20 -65 24 -12 26 -17 20 -59 -8 -58 11 -33 20 28 8 54 24 65 24 15 0 -42 -28 -111 -65 -159 -34 -45 -116 -94 -172 -104 -36 -6 -11 -8 100 -9 l147 -1 0 148 c0 122 -3 155 -20 197 -10 28 -20 43 -21 35 -1 -8 -4 -1 -8 17 -5 27 -8 30 -22 20z" fill="#de7519"/>
<path d="M455 379 c-46 -19 -64 -33 -65 -51 0 -5 27 -8 60 -8 50 0 60 3 60 18 0 9 3 27 6 40 8 27 3 27 -61 1z" fill="#de7519"/>
<path d="M486 278 c3 -13 7 -23 8 -24 0 0 14 -8 29 -18 16 -10 30 -16 32 -14 11 11 -10 47 -35 61 -37 22 -43 21 -34 -5z" fill="#de7519"/>
<path d="M457 264 c-8 -9 31 -54 47 -54 6 1 2 9 -10 18 -11 10 -23 23 -25 30 -2 7 -8 10 -12 6z" fill="#de7519"/>
<path d="M526 170 c4 -25 8 -46 9 -48 1 -1 9 8 18 21 15 23 14 26 -9 48 l-25 23 7 -44z" fill="#de7519"/>
<path d="M463 134 c-53 -52 -99 -69 -183 -69 -52 0 -84 5 -100 16 -14 8 -34 19 -44 22 -16 7 -17 5 -5 -9 7 -9 22 -20 34 -25 11 -6 31 -17 45 -25 19 -11 43 -13 100 -8 41 3 79 10 85 15 5 5 16 9 25 9 25 0 79 29 88 48 5 10 4 25 -2 37 -11 19 -12 19 -43 -11z" fill="#de7519"/>
</g>
</svg>